# xmcd CD database file
#
# Track frame offsets:
#	150
#	15895
#	35878
#	60010
#	78880
#	96263
#	117103
#	132855
#	153843
#	169205
#	198940
#
# Disc length: 4440 seconds
#
# Revision: 1
# Processed by: cddbd v1.5.2PL0 Copyright (c) Steve Scherf et al.
# Submitted via: CDex 1.51
#
DISCID=7911560b
DTITLE=Chet Baker - Big Band (2004 Reissue)
DYEAR=1957
DGENRE=Jazz
TTITLE0=A Foggy Day
TTITLE1=Mythe
TTITLE2=Worryin' The Life Out Of Me
TTITLE3=Chet
TTITLE4=Not Too Slow
TTITLE5=Phil's Blues
TTITLE6=Darn That Dream
TTITLE7=Dinah
TTITLE8=V-Line
TTITLE9=Tenderly
TTITLE10=(copy protection)
EXTD=YEAR: 1957
EXTT0=
EXTT1=
EXTT2=
EXTT3=
EXTT4=
EXTT5=
EXTT6=
EXTT7=
EXTT8=
EXTT9=
EXTT10=
PLAYORDER=
